<svg width="100" height="100" viewBox="0 0 100 100" fill="none" xmlns="http://www.w3.org/2000/svg">
<path d="M50.5432 0.00408936C77.9075 0.293738 100 22.5674 100 50C100 77.4326 77.9075 99.7062 50.5432 99.9959L85.9155 50L50.5432 0.00408936Z" fill="#2D71E6"/>
<path d="M50.5432 0.00410156C73.4607 0.350195 91.9518 22.6016 91.9518 50C91.9518 77.3984 73.4607 99.6498 50.5434 99.9959C50.3621 99.998 50.1811 100 50 100C22.3863 100 0 77.6137 0 50C0 22.3863 22.3863 0 50 0C50.1811 0 50.3621 0.00195312 50.5432 0.00410156ZM75.0504 50C75.0504 36.165 63.8352 24.9496 50 24.9496C36.1648 24.9496 24.9496 36.165 24.9496 50C24.9496 63.835 36.165 75.0504 50 75.0504C63.835 75.0504 75.0504 63.835 75.0504 50Z" fill="#428AEF"/>
</svg>
