<svg width="82" height="82" viewBox="0 0 82 82" fill="none" xmlns="http://www.w3.org/2000/svg">
<path d="M24.2042 62.2736L33.1523 53.3255C33.8577 52.6203 34.246 51.6826 34.246 50.6853C34.246 49.688 33.8577 48.7504 33.1525 48.0451C31.6967 46.5896 29.328 46.5898 27.8721 48.0451L18.9239 56.9934L9.97564 48.0451C8.51966 46.5893 6.15111 46.5896 4.69529 48.0453C3.99012 48.7504 3.60175 49.6882 3.60175 50.6853C3.60175 51.6827 3.99012 52.6203 4.69529 53.3255L13.6435 62.2736L4.69529 71.2218C3.99012 71.927 3.60175 72.8647 3.60175 73.8618C3.60175 74.8593 3.99012 75.7968 4.69529 76.5019C5.40046 77.2072 6.33817 77.5956 7.33547 77.5956C8.33276 77.5956 9.27047 77.2072 9.97564 76.502L18.9239 67.5538L27.8721 76.502C28.5773 77.2072 29.515 77.5956 30.5123 77.5956C31.5098 77.5956 32.4473 77.2072 33.1525 76.502C33.8577 75.7968 34.246 74.8591 34.246 73.8618C34.246 72.8645 33.8577 71.927 33.1525 71.2218L24.2042 62.2736ZM31.4537 74.8036C31.2023 75.0548 30.868 75.1935 30.5123 75.1935C30.1568 75.1935 29.8224 75.055 29.5709 74.8034L19.7734 65.0058C19.5389 64.7714 19.2314 64.6541 18.9241 64.6541C18.6167 64.6541 18.3092 64.7714 18.0747 65.0058L8.27719 74.8036C8.02574 75.0548 7.6915 75.1935 7.33579 75.1935C6.98008 75.1935 6.64583 75.055 6.39439 74.8034C6.14294 74.5521 6.00441 74.2177 6.00441 73.862C6.00441 73.5065 6.14278 73.172 6.39439 72.9208L16.1919 63.123C16.661 62.6538 16.661 61.8934 16.1919 61.4243L6.39439 51.6267C6.14294 51.3754 6.00441 51.041 6.00441 50.6853C6.00441 50.3296 6.14294 49.9952 6.39439 49.7439C6.91346 49.2247 7.75828 49.2247 8.27735 49.7439L18.0749 59.5415C18.544 60.0104 19.3046 60.0104 19.7735 59.5415L29.5709 49.7439C30.0901 49.225 30.9348 49.2248 31.4539 49.7441C31.7053 49.9953 31.8439 50.3297 31.8439 50.6853C31.8437 51.0408 31.7052 51.3752 31.4537 51.6267L21.6562 61.4243C21.1871 61.8935 21.1871 62.6539 21.6562 63.123L31.4537 72.9208C31.7052 73.172 31.8437 73.5065 31.8437 73.862C31.8437 74.2177 31.7053 74.5521 31.4537 74.8036Z" fill="#E5435D"/>
<path d="M65.8983 47.212C65.2463 47.0904 64.6188 47.5206 64.4974 48.1727C64.3759 48.8249 64.806 49.4521 65.4582 49.5736C71.5642 50.7114 75.9958 56.0524 75.9958 62.2735C75.9958 69.3976 70.2001 75.1937 63.0759 75.1937C55.9517 75.1937 50.1558 69.3978 50.1558 62.2735C50.1558 56.1743 54.484 50.8533 60.4476 49.6214C61.0973 49.4871 61.515 48.8516 61.3808 48.2021C61.2464 47.5523 60.6108 47.1349 59.9615 47.2688C52.8877 48.7301 47.7534 55.0406 47.7534 62.2735C47.7534 70.7224 54.627 77.596 63.0759 77.596C71.5246 77.596 78.3982 70.7224 78.3982 62.2735C78.3982 54.8959 73.1412 48.5616 65.8983 47.212Z" fill="#428AEF"/>
<path d="M63.0759 51.428C57.0955 51.428 52.2301 56.2933 52.2301 62.2736C52.2301 68.254 57.0955 73.1193 63.0759 73.1193C69.0563 73.1193 73.9217 68.254 73.9217 62.2736C73.9217 56.2933 69.0563 51.428 63.0759 51.428ZM63.0759 70.717C58.4201 70.717 54.6324 66.9293 54.6324 62.2736C54.6324 57.6178 58.4203 53.8303 63.0759 53.8303C67.7315 53.8303 71.5193 57.6178 71.5193 62.2736C71.5193 66.9293 67.7316 70.717 63.0759 70.717Z" fill="#428AEF"/>
<path d="M68.3561 19.7265L77.3042 10.7782C78.0095 10.073 78.3979 9.13532 78.3979 8.13803C78.3979 7.14073 78.0095 6.20318 77.3042 5.49785C75.8484 4.04235 73.4796 4.04235 72.0238 5.49785L63.0761 14.4461L54.1278 5.49769C52.6721 4.04235 50.3033 4.04203 48.8476 5.49785C48.1423 6.20302 47.7539 7.14073 47.7539 8.13803C47.7539 9.13532 48.1423 10.0729 48.8475 10.778L57.7957 19.7263L48.8476 28.6745C48.1423 29.3797 47.7539 30.3174 47.7539 31.3147C47.7539 32.312 48.1423 33.2496 48.8475 33.9547C49.5528 34.6599 50.4905 35.0483 51.4876 35.0483C52.4848 35.0483 53.4225 34.6599 54.1276 33.9547L56.509 31.5735C56.9783 31.1044 56.9783 30.3439 56.5092 29.8749C56.0401 29.406 55.2795 29.4057 54.8106 29.8748L52.429 32.256C52.1776 32.5074 51.8433 32.6461 51.4876 32.6461C51.1319 32.6461 50.7977 32.5076 50.5461 32.256C50.2946 32.0047 50.1561 31.6703 50.1561 31.3147C50.1561 30.959 50.2945 30.6246 50.5462 30.3733L60.3438 20.5758C60.8129 20.1065 60.8129 19.3461 60.3438 18.877L50.5461 9.07927C50.2946 8.82798 50.1561 8.49357 50.1561 8.13787C50.1561 7.78216 50.2946 7.44791 50.5461 7.19647C51.0653 6.67724 51.9101 6.67756 52.429 7.19647L62.2266 16.9942C62.4519 17.2194 62.7573 17.3459 63.0761 17.3459C63.3948 17.3459 63.7 17.2194 63.9255 16.9942L73.7229 7.19647C74.2421 6.67756 75.0868 6.6774 75.606 7.19663C75.8575 7.44791 75.996 7.78232 75.996 8.13803C75.996 8.49357 75.8576 8.82798 75.6059 9.07927L65.8082 18.877C65.3391 19.3462 65.3391 20.1067 65.8082 20.5758L75.6059 30.3733C75.8573 30.6246 75.9959 30.959 75.9959 31.3147C75.9959 31.6703 75.8575 32.0047 75.6057 32.256C75.3543 32.5074 75.02 32.6461 74.6643 32.6461C74.3086 32.6461 73.9744 32.5076 73.7229 32.256L63.9254 22.4586C63.4563 21.9898 62.6957 21.9895 62.2267 22.4586L58.6809 26.0043C58.2116 26.4734 58.2116 27.2339 58.6807 27.7029C59.1498 28.1718 59.9104 28.1721 60.3793 27.703L63.0759 25.0066L72.024 33.9547C72.7293 34.6599 73.667 35.0483 74.6642 35.0483C75.6613 35.0483 76.599 34.6599 77.3042 33.9547C78.0095 33.2496 78.3979 32.3119 78.3979 31.3147C78.3979 30.3173 78.0095 29.3797 77.3043 28.6745L68.3561 19.7265Z" fill="#E5435D"/>
<path d="M18.9241 4.40382C10.4754 4.40382 3.60193 11.2776 3.60193 19.7264C3.60193 28.1752 10.4755 35.0486 18.9242 35.0486C21.9333 35.0486 24.8471 34.1756 27.351 32.5237C27.9048 32.1584 28.0576 31.4132 27.6922 30.8596C27.3268 30.3057 26.5815 30.1529 26.0281 30.5183C23.9181 31.9103 21.4614 32.6461 18.9242 32.6461C11.8002 32.6461 6.00427 26.8504 6.00427 19.7263C6.00427 12.6022 11.8002 6.80616 18.9242 6.80616C26.0483 6.80616 31.8442 12.6021 31.8442 19.7263C31.8442 22.3386 31.0681 24.8551 29.5998 27.0041C29.2255 27.552 29.3661 28.2993 29.9138 28.6736C30.4613 29.0479 31.2089 28.9069 31.5831 28.3595C33.3255 25.8095 34.2464 22.824 34.2464 19.7263C34.2464 11.2774 27.3728 4.40382 18.9241 4.40382Z" fill="#428AEF"/>
<path d="M18.9242 8.88069C12.9438 8.88069 8.07843 13.7461 8.07843 19.7265C8.07843 25.7067 12.9438 30.5721 18.9242 30.5721C24.9046 30.5721 29.77 25.7067 29.77 19.7265C29.7698 13.7461 24.9044 8.88069 18.9242 8.88069ZM18.9242 28.1698C14.2685 28.1698 10.4808 24.3822 10.4808 19.7265C10.4808 15.0707 14.2685 11.283 18.9242 11.283C23.58 11.283 27.3676 15.0707 27.3676 19.7265C27.3676 24.3822 23.5798 28.1698 18.9242 28.1698Z" fill="#428AEF"/>
<path d="M80.7988 39.7988H42.2012V1.20117C42.2012 0.537645 41.6635 0 41 0C40.3366 0 39.7988 0.537645 39.7988 1.20117V39.7988H1.20117C0.537805 39.7988 0 40.3365 0 41C0 41.6635 0.537805 42.2012 1.20117 42.2012H39.7988V80.7988C39.7988 81.4624 40.3366 82 41 82C41.6635 82 42.2012 81.4624 42.2012 80.7988V42.2012H80.7988C81.4624 42.2012 82 41.6635 82 41C82 40.3365 81.4624 39.7988 80.7988 39.7988Z" fill="#656060"/>
<path d="M45.6938 44.316C45.0303 44.316 44.4927 44.8537 44.4927 45.5172V45.6674C44.4927 46.331 45.0303 46.8686 45.6938 46.8686C46.3574 46.8686 46.895 46.331 46.895 45.6674V45.5172C46.895 44.8538 46.3572 44.316 45.6938 44.316Z" fill="#E5435D"/>
<path d="M36.3062 44.316C35.6428 44.316 35.105 44.8537 35.105 45.5172V45.6674C35.105 46.331 35.6428 46.8686 36.3062 46.8686C36.9695 46.8686 37.5073 46.331 37.5073 45.6674V45.5172C37.5073 44.8538 36.9695 44.316 36.3062 44.316Z" fill="#428AEF"/>
<path d="M45.6938 35.1314C45.0303 35.1314 44.4927 35.669 44.4927 36.3326V36.4828C44.4927 37.1463 45.0303 37.684 45.6938 37.684C46.3574 37.684 46.895 37.1463 46.895 36.4828V36.3326C46.895 35.669 46.3574 35.1314 45.6938 35.1314Z" fill="#428AEF"/>
<path d="M36.3062 35.1314C35.6428 35.1314 35.105 35.669 35.105 36.3326V36.4828C35.105 37.1463 35.6428 37.684 36.3062 37.684C36.9695 37.684 37.5073 37.1463 37.5073 36.4828V36.3326C37.5073 35.669 36.9695 35.1314 36.3062 35.1314Z" fill="#E5435D"/>
</svg>
